<svg width="20" height="20" viewBox="0 0 20 20" fill="none" xmlns="http://www.w3.org/2000/svg">
<path d="M18.5773 19.7558C18.7398 19.9183 18.9531 20 19.1665 20C19.3798 20 19.5931 19.9183 19.7556 19.7558C20.0815 19.43 20.0815 18.9033 19.7556 18.5775L13.9408 12.7626L16.4582 9.16678C16.5924 8.98761 16.6665 8.76595 16.6665 8.54179C16.6665 7.96763 16.199 7.50013 15.6249 7.50013H11.12L11.87 1.16436C11.8725 1.1402 11.8741 1.06603 11.8741 1.04186C11.875 0.467703 11.4075 0.000208322 10.8333 0.000208322C10.5067 0.000208322 10.195 0.156873 9.98167 0.442704L6.6159 5.43765L1.42268 0.244372C1.09685 -0.0814575 0.570196 -0.0814575 0.24437 0.244372C-0.0814566 0.570202 -0.0814566 1.09686 0.24437 1.42269L18.5773 19.7558Z" fill="white"/>
</svg>
